<?xml version="1.0" encoding="UTF-8" standalone="no"?>
<!-- Created with Inkscape (http://www.inkscape.org/) -->

<svg
   width="6.5483241mm"
   height="6.3500085mm"
   viewBox="0 0 6.5483241 6.3500085"
   version="1.1"
   id="svg1"
   inkscape:export-filename="emptystar.svg"
   inkscape:export-xdpi="96"
   inkscape:export-ydpi="96"
   xmlns:inkscape="http://www.inkscape.org/namespaces/inkscape"
   xmlns:sodipodi="http://sodipodi.sourceforge.net/DTD/sodipodi-0.dtd"
   xmlns="http://www.w3.org/2000/svg"
   xmlns:svg="http://www.w3.org/2000/svg">
  <sodipodi:namedview
     id="namedview1"
     pagecolor="#ffffff"
     bordercolor="#000000"
     borderopacity="0.25"
     inkscape:showpageshadow="2"
     inkscape:pageopacity="0.0"
     inkscape:pagecheckerboard="0"
     inkscape:deskcolor="#d1d1d1"
     inkscape:document-units="mm" />
  <defs
     id="defs1" />
  <g
     inkscape:label="Calque 1"
     inkscape:groupmode="layer"
     id="layer1"
     transform="translate(-68.262506,-88.899999)">
    <path
       d="M 71.892797,89.123218 C 71.827181,88.986807 71.688275,88.9 71.53561,88.9 c -0.1524,0 -0.289983,0.08681 -0.356923,0.223218 l -0.797454,1.640639 -1.780911,0.262917 c -0.148695,0.0223 -0.272785,0.126471 -0.318558,0.269081 -0.04577,0.14261 -0.0087,0.300117 0.0979,0.405527 l 1.292225,1.278519 -0.305065,1.80684 c -0.02487,0.148802 0.03731,0.30009 0.160073,0.388144 0.122767,0.08805 0.285221,0.09922 0.4191,0.02852 l 1.59094,-0.849471 1.590939,0.849471 c 0.134144,0.0707 0.296598,0.06078 0.419365,-0.02852 0.122767,-0.0893 0.184679,-0.239342 0.159808,-0.388144 l -0.306123,-1.80684 1.291961,-1.278519 c 0.106627,-0.10541 0.145256,-0.262917 0.09816,-0.405527 -0.04736,-0.14261 -0.170127,-0.246777 -0.318823,-0.269081 l -1.781968,-0.262917 z"
       fill="#e3e3e3"
       id="path2"
       style="stroke-width:0.264583" />
  </g>
</svg>
