<?xml version="1.0" encoding="UTF-8" standalone="no"?>
<!-- Created with Inkscape (http://www.inkscape.org/) -->

<svg
   width="6.5483809mm"
   height="6.3500004mm"
   viewBox="0 0 6.5483809 6.3500004"
   version="1.1"
   id="svg1"
   inkscape:version="1.3 (0e150ed6c4, 2023-07-21)"
   sodipodi:docname="dessin.svg"
   inkscape:export-filename="Desktop\dessin.svg"
   inkscape:export-xdpi="96"
   inkscape:export-ydpi="96"
   xmlns:inkscape="http://www.inkscape.org/namespaces/inkscape"
   xmlns:sodipodi="http://sodipodi.sourceforge.net/DTD/sodipodi-0.dtd"
   xmlns="http://www.w3.org/2000/svg"
   xmlns:svg="http://www.w3.org/2000/svg">
  <sodipodi:namedview
     id="namedview1"
     pagecolor="#ffffff"
     bordercolor="#000000"
     borderopacity="0.25"
     inkscape:showpageshadow="2"
     inkscape:pageopacity="0.0"
     inkscape:pagecheckerboard="0"
     inkscape:deskcolor="#d1d1d1"
     inkscape:document-units="mm"
     inkscape:zoom="1.0520974"
     inkscape:cx="321.26304"
     inkscape:cy="561.25984"
     inkscape:window-width="2560"
     inkscape:window-height="1377"
     inkscape:window-x="1912"
     inkscape:window-y="-8"
     inkscape:window-maximized="1"
     inkscape:current-layer="layer1" />
  <defs
     id="defs1" />
  <g
     inkscape:label="Calque 1"
     inkscape:groupmode="layer"
     id="layer1"
     transform="translate(-102.22558,-129.09301)">
    <path
       d="m 105.85605,129.31624 c -0.0657,-0.13641 -0.20461,-0.22322 -0.35714,-0.22322 -0.15253,0 -0.29017,0.0868 -0.35713,0.22322 l -0.79738,1.64064 -1.78076,0.26291 c -0.1488,0.0223 -0.27281,0.12647 -0.31869,0.26908 -0.0459,0.14262 -0.009,0.30012 0.098,0.40553 l 1.29216,1.27852 -0.30506,1.80684 c -0.0248,0.1488 0.0372,0.30009 0.15997,0.38814 0.12276,0.0881 0.28522,0.0992 0.41915,0.0285 l 1.59102,-0.84947 1.59102,0.84947 c 0.13393,0.0707 0.29638,0.0608 0.41915,-0.0285 0.12277,-0.0893 0.18476,-0.23934 0.15997,-0.38814 l -0.30631,-1.80684 1.29217,-1.27852 c 0.10663,-0.10541 0.14507,-0.26291 0.0979,-0.40553 -0.0471,-0.14261 -0.16989,-0.24677 -0.31869,-0.26908 l -1.78199,-0.26291 z"
       fill="#ff6060"
       id="path5"
       style="stroke-width:0.264583" />
  </g>
</svg>
