<?xml version="1.0" encoding="UTF-8"?>
<svg width="6.5483mm" height="6.35mm" version="1.1" viewBox="0 0 6.5483 6.35" xmlns="http://www.w3.org/2000/svg">
<g transform="translate(-68.263 -88.9)">
<path d="m71.893 89.123c-0.065616-0.13641-0.20452-0.22322-0.35719-0.22322-0.1524 0-0.28998 0.08681-0.35692 0.22322l-0.79745 1.6406-1.7809 0.26292c-0.1487 0.0223-0.27278 0.12647-0.31856 0.26908-0.04577 0.14261-0.0087 0.30012 0.0979 0.40553l1.2922 1.2785-0.30506 1.8068c-0.02487 0.1488 0.03731 0.30009 0.16007 0.38814 0.12277 0.08805 0.28522 0.09922 0.4191 0.02852l1.5909-0.84947 1.5909 0.84947c0.13414 0.0707 0.2966 0.06078 0.41936-0.02852s0.18468-0.23934 0.15981-0.38814l-0.30612-1.8068 1.292-1.2785c0.10663-0.10541 0.14526-0.26292 0.09816-0.40553-0.04736-0.14261-0.17013-0.24678-0.31882-0.26908l-1.782-0.26292z" fill="#e3e3e3" stroke-width=".26458"/>
</g>
</svg>
