<?xml version="1.0" encoding="UTF-8"?>
<svg width="6.5484mm" height="6.35mm" version="1.1" viewBox="0 0 6.5484 6.35" xmlns="http://www.w3.org/2000/svg">
<g transform="translate(-102.23 -129.09)">
<path d="m105.86 129.32c-0.0657-0.13641-0.20461-0.22322-0.35714-0.22322s-0.29017 0.0868-0.35713 0.22322l-0.79738 1.6406-1.7808 0.26291c-0.1488 0.0223-0.27281 0.12647-0.31869 0.26908-0.0459 0.14262-9e-3 0.30012 0.098 0.40553l1.2922 1.2785-0.30506 1.8068c-0.0248 0.1488 0.0372 0.30009 0.15997 0.38814 0.12276 0.0881 0.28522 0.0992 0.41915 0.0285l1.591-0.84947 1.591 0.84947c0.13393 0.0707 0.29638 0.0608 0.41915-0.0285s0.18476-0.23934 0.15997-0.38814l-0.30631-1.8068 1.2922-1.2785c0.10663-0.10541 0.14507-0.26291 0.0979-0.40553-0.0471-0.14261-0.16989-0.24677-0.31869-0.26908l-1.782-0.26291z" fill="#ff6060" stroke-width=".26458"/>
</g>
</svg>
